<svg xmlns="http://www.w3.org/2000/svg" width="16" height="17" viewBox="0 0 16 17">
    <defs>
        <filter id="15i9pgz10a">
            <feColorMatrix in="SourceGraphic" values="0 0 0 0 0.113725 0 0 0 0 0.482353 0 0 0 0 0.964706 0 0 0 1.000000 0"/>
        </filter>
        <filter id="dhwj3qkl0b">
            <feColorMatrix in="SourceGraphic" values="0 0 0 0 1.000000 0 0 0 0 1.000000 0 0 0 0 1.000000 0 0 0 1.000000 0"/>
        </filter>
    </defs>
    <g fill="none" fill-rule="evenodd">
        <g>
            <g>
                <g>
                    <g>
                        <g>
                            <g filter="url(#15i9pgz10a)" transform="translate(-1577 -480) translate(74 159) translate(1489 264) translate(0 43) translate(14 14.5)">
                                <circle cx="8" cy="8" r="8" fill="#1D7BF6"/>
                            </g>
                            <g filter="url(#dhwj3qkl0b)" transform="translate(-1577 -480) translate(74 159) translate(1489 264) translate(0 43) translate(14 14.5)">
                                <g fill="#000">
                                    <path d="M7.375 3.578c0-.254-.206-.46-.46-.46H4.92V1.124c0-.254-.206-.46-.46-.46h-.92c-.254 0-.46.206-.46.46v1.994H1.085c-.254 0-.46.206-.46.46v.92c0 .255.206.46.46.46H3.08v1.995c0 .254.206.46.46.46h.92c.254 0 .46-.206.46-.46V4.96h1.995c.254 0 .46-.206.46-.46v-.92z" transform="translate(4 4)"/>
                                </g>
                            </g>
                        </g>
                    </g>
                </g>
            </g>
        </g>
    </g>
</svg>
