<svg xmlns="http://www.w3.org/2000/svg" width="24" height="24" viewBox="0 0 24 24">
    <g fill="none" fill-rule="evenodd">
        <g transform="translate(-1676 -265)">
            <g>
                <g fill="#646464" fill-rule="nonzero">
                    <path d="M8.873 6.732l4.96-4.96c.222-.222.222-.582 0-.804l-.801-.802c-.222-.221-.582-.221-.803 0L7.268 5.127c-.148.148-.388.148-.536 0L1.772.167c-.222-.222-.582-.222-.804 0L.166.967c-.221.222-.221.582 0 .803l4.961 4.961c.148.148.148.388 0 .536l-4.96 4.96c-.222.222-.222.582 0 .804l.801.802c.222.221.582.221.803 0l4.961-4.961c.148-.148.388-.148.536 0l4.96 4.96c.222.222.582.222.804 0l.802-.801c.221-.222.221-.582 0-.803L8.873 7.268c-.148-.148-.148-.388 0-.536" transform="translate(1676 265) translate(5 5)"/>
                </g>
            </g>
        </g>
    </g>
</svg>
